<svg width="22" height="23" viewBox="0 0 22 23" fill="none" xmlns="http://www.w3.org/2000/svg">
<path d="M14.9965 10.1531H15.0054M10.9955 10.1531H11.0045M6.99451 10.1531H7.00349M7.5 18.1291H7C3 18.1291 1 17.1321 1 12.1471V7.16205C1 3.17401 3 1.17999 7 1.17999H15C19 1.17999 21 3.17401 21 7.16205V12.1471C21 16.1351 19 18.1291 15 18.1291H14.5C14.19 18.1291 13.89 18.2787 13.7 18.5279L12.2 20.522C11.54 21.3993 10.46 21.3993 9.8 20.522L8.3 18.5279C8.14 18.3086 7.77 18.1291 7.5 18.1291Z" stroke="#292D32" stroke-width="2" stroke-linecap="round" stroke-linejoin="round"/>
</svg>
