<svg width="35" height="34" viewBox="0 0 35 34" fill="none" xmlns="http://www.w3.org/2000/svg">
<path d="M0 0H35V34H0V0Z" fill="#575353"/>
<path d="M26.25 4.25H8.75C7.58968 4.25 6.47688 4.69777 5.65641 5.4948C4.83594 6.29183 4.375 7.37283 4.375 8.5V25.5C4.375 26.6272 4.83594 27.7082 5.65641 28.5052C6.47688 29.3022 7.58968 29.75 8.75 29.75H26.25C27.4103 29.75 28.5231 29.3022 29.3436 28.5052C30.1641 27.7082 30.625 26.6272 30.625 25.5V8.5C30.625 7.37283 30.1641 6.29183 29.3436 5.4948C28.5231 4.69777 27.4103 4.25 26.25 4.25ZM21.875 18.4167H18.9583V21.25C18.9583 21.6257 18.8047 21.9861 18.5312 22.2517C18.2577 22.5174 17.8868 22.6667 17.5 22.6667C17.1132 22.6667 16.7423 22.5174 16.4688 22.2517C16.1953 21.9861 16.0417 21.6257 16.0417 21.25V18.4167H13.125C12.7382 18.4167 12.3673 18.2674 12.0938 18.0017C11.8203 17.7361 11.6667 17.3757 11.6667 17C11.6667 16.6243 11.8203 16.2639 12.0938 15.9983C12.3673 15.7326 12.7382 15.5833 13.125 15.5833H16.0417V12.75C16.0417 12.3743 16.1953 12.0139 16.4688 11.7483C16.7423 11.4826 17.1132 11.3333 17.5 11.3333C17.8868 11.3333 18.2577 11.4826 18.5312 11.7483C18.8047 12.0139 18.9583 12.3743 18.9583 12.75V15.5833H21.875C22.2618 15.5833 22.6327 15.7326 22.9062 15.9983C23.1797 16.2639 23.3333 16.6243 23.3333 17C23.3333 17.3757 23.1797 17.7361 22.9062 18.0017C22.6327 18.2674 22.2618 18.4167 21.875 18.4167Z" fill="#9E9898"/>
</svg>
