<svg width="27" height="27" viewBox="0 0 27 27" fill="none" xmlns="http://www.w3.org/2000/svg">
<path d="M22.5 0H4.5C3.30653 0 2.16193 0.474106 1.31802 1.31802C0.474106 2.16193 0 3.30653 0 4.5V22.5C0 23.6935 0.474106 24.8381 1.31802 25.682C2.16193 26.5259 3.30653 27 4.5 27H22.5C23.6935 27 24.8381 26.5259 25.682 25.682C26.5259 24.8381 27 23.6935 27 22.5V4.5C27 3.30653 26.5259 2.16193 25.682 1.31802C24.8381 0.474106 23.6935 0 22.5 0ZM18 15H15V18C15 18.3978 14.842 18.7794 14.5607 19.0607C14.2794 19.342 13.8978 19.5 13.5 19.5C13.1022 19.5 12.7206 19.342 12.4393 19.0607C12.158 18.7794 12 18.3978 12 18V15H9C8.60218 15 8.22065 14.842 7.93934 14.5607C7.65804 14.2794 7.5 13.8978 7.5 13.5C7.5 13.1022 7.65804 12.7206 7.93934 12.4393C8.22065 12.158 8.60218 12 9 12H12V9C12 8.60218 12.158 8.22065 12.4393 7.93935C12.7206 7.65804 13.1022 7.5 13.5 7.5C13.8978 7.5 14.2794 7.65804 14.5607 7.93935C14.842 8.22065 15 8.60218 15 9V12H18C18.3978 12 18.7794 12.158 19.0607 12.4393C19.342 12.7206 19.5 13.1022 19.5 13.5C19.5 13.8978 19.342 14.2794 19.0607 14.5607C18.7794 14.842 18.3978 15 18 15Z" fill="#9E9898"/>
</svg>
