<svg width="24" height="27" viewBox="0 0 24 27" fill="none" xmlns="http://www.w3.org/2000/svg">
<path d="M13.374 0.567213C12.603 -0.189071 11.397 -0.189071 10.626 0.567213L0.93896 10.0694C0.3396 10.6574 0 11.4754 0 12.3312V23.8875C0 25.6064 1.34314 27 3 27H6C7.65686 27 9 25.6064 9 23.8875V18.6999C9 18.127 9.44772 17.6625 10 17.6625H14C14.5523 17.6625 15 18.127 15 18.6999V23.8875C15 25.6064 16.3432 27 18 27H21C22.6568 27 24 25.6064 24 23.8875V12.3312C24 11.4754 23.6604 10.6574 23.061 10.0694L13.374 0.567213Z" fill="#FA9884"/>
</svg>
