<svg width="25" height="6" viewBox="0 0 25 6" fill="none" xmlns="http://www.w3.org/2000/svg">
<path d="M12.5 6C14.0341 6 15.2778 4.65685 15.2778 3C15.2778 1.34315 14.0341 0 12.5 0C10.9659 0 9.72223 1.34315 9.72223 3C9.72223 4.65685 10.9659 6 12.5 6Z" fill="#706C6C"/>
<path d="M22.2222 6C23.7563 6 25 4.65685 25 3C25 1.34315 23.7563 0 22.2222 0C20.6881 0 19.4444 1.34315 19.4444 3C19.4444 4.65685 20.6881 6 22.2222 6Z" fill="#706C6C"/>
<path d="M2.77778 6C4.3119 6 5.55555 4.65685 5.55555 3C5.55555 1.34315 4.3119 3.69988e-07 2.77778 3.69988e-07C1.24365 3.69988e-07 0 1.34315 0 3C0 4.65685 1.24365 6 2.77778 6Z" fill="#706C6C"/>
</svg>
