<svg width="23" height="26" viewBox="0 0 23 26" fill="none" xmlns="http://www.w3.org/2000/svg">
<path d="M11.5 26C13.1752 26 14.5756 24.9158 15.1008 23.4H7.89922C8.42439 24.9158 9.82483 26 11.5 26ZM20.4444 16.3618V10.4C20.4444 6.2179 17.6525 2.6949 13.8703 1.6354C13.4959 0.676 12.581 0 11.5 0C10.419 0 9.50411 0.676 9.12972 1.6354C5.3475 2.6962 2.55556 6.2179 2.55556 10.4V16.3618L0.374389 18.5809C0.134167 18.824 0 19.1542 0 19.5V20.8C0 21.5189 0.571167 22.1 1.27778 22.1H21.7222C22.4288 22.1 23 21.5189 23 20.8V19.5C23 19.1542 22.8658 18.824 22.6256 18.5809L20.4444 16.3618Z" fill="#9E9898"/>
</svg>
