<svg width="30" height="28" viewBox="0 0 30 28" fill="none" xmlns="http://www.w3.org/2000/svg">
<path d="M22.9667 4.97208C20.7622 2.74989 17.8526 1.36762 14.7396 1.06356C11.6266 0.759503 8.50519 1.55272 5.91353 3.30645C3.32188 5.06019 1.42239 7.66455 0.542536 10.6705C-0.337316 13.6765 -0.14239 16.8957 1.09371 19.7732C1.22254 20.0407 1.26481 20.3417 1.21463 20.6344L0.0323042 26.3261C-0.0132472 26.5443 -0.00394553 26.7704 0.0593734 26.9841C0.122692 27.1979 0.238044 27.3925 0.395062 27.5505C0.52378 27.6785 0.677038 27.779 0.8456 27.8461C1.01416 27.9132 1.19454 27.9454 1.37585 27.9407H1.64456L7.39495 26.7836C7.68721 26.7484 7.98358 26.7901 8.25482 26.9047C11.128 28.1426 14.3424 28.3378 17.3439 27.4567C20.3454 26.5755 22.9459 24.6732 24.697 22.0776C26.4481 19.4821 27.2401 16.356 26.9365 13.2383C26.6329 10.1207 25.2527 7.20676 23.0339 4.99899L22.9667 4.97208ZM8.09359 15.8307C7.82787 15.8307 7.5681 15.7518 7.34716 15.604C7.12621 15.4561 6.95401 15.246 6.85232 15.0001C6.75063 14.7542 6.72402 14.4837 6.77586 14.2227C6.8277 13.9616 6.95566 13.7219 7.14356 13.5337C7.33146 13.3455 7.57086 13.2174 7.83148 13.1655C8.0921 13.1135 8.36225 13.1402 8.60775 13.242C8.85325 13.3439 9.06308 13.5163 9.21071 13.7376C9.35834 13.9589 9.43714 14.219 9.43714 14.4852C9.43714 14.842 9.29559 15.1843 9.04363 15.4366C8.79166 15.689 8.44993 15.8307 8.09359 15.8307ZM13.4678 15.8307C13.2021 15.8307 12.9423 15.7518 12.7214 15.604C12.5004 15.4561 12.3282 15.246 12.2265 15.0001C12.1248 14.7542 12.0982 14.4837 12.1501 14.2227C12.2019 13.9616 12.3299 13.7219 12.5178 13.5337C12.7057 13.3455 12.9451 13.2174 13.2057 13.1655C13.4663 13.1135 13.7364 13.1402 13.9819 13.242C14.2274 13.3439 14.4373 13.5163 14.5849 13.7376C14.7325 13.9589 14.8113 14.219 14.8113 14.4852C14.8113 14.842 14.6698 15.1843 14.4178 15.4366C14.1659 15.689 13.8241 15.8307 13.4678 15.8307ZM18.842 15.8307C18.5763 15.8307 18.3165 15.7518 18.0955 15.604C17.8746 15.4561 17.7024 15.246 17.6007 15.0001C17.499 14.7542 17.4724 14.4837 17.5243 14.2227C17.5761 13.9616 17.7041 13.7219 17.892 13.5337C18.0798 13.3455 18.3192 13.2174 18.5799 13.1655C18.8405 13.1135 19.1106 13.1402 19.3561 13.242C19.6016 13.3439 19.8115 13.5163 19.9591 13.7376C20.1067 13.9589 20.1855 14.219 20.1855 14.4852C20.1855 14.842 20.044 15.1843 19.792 15.4366C19.5401 15.689 19.1983 15.8307 18.842 15.8307Z" fill="#FA9884"/>
<circle cx="24" cy="6" r="5.75" fill="#575353" stroke="white" stroke-width="0.5"/>
<path d="M22.527 9V8.55256L24.2074 6.71307C24.4046 6.49763 24.567 6.31037 24.6946 6.15128C24.8222 5.99053 24.9167 5.83973 24.978 5.69886C25.041 5.55634 25.0724 5.4072 25.0724 5.25142C25.0724 5.07244 25.0294 4.9175 24.9432 4.78658C24.8587 4.65566 24.7427 4.55457 24.5952 4.48331C24.4477 4.41205 24.282 4.37642 24.098 4.37642C23.9025 4.37642 23.7318 4.41702 23.5859 4.49822C23.4418 4.57777 23.3299 4.68963 23.2504 4.83381C23.1725 4.97798 23.1335 5.14702 23.1335 5.34091H22.5469C22.5469 5.04261 22.6156 4.78078 22.7532 4.5554C22.8907 4.33002 23.078 4.15436 23.315 4.02841C23.5536 3.90246 23.8213 3.83949 24.1179 3.83949C24.4162 3.83949 24.6805 3.90246 24.9109 4.02841C25.1412 4.15436 25.3219 4.32422 25.4528 4.538C25.5837 4.75178 25.6491 4.98958 25.6491 5.25142C25.6491 5.43868 25.6152 5.6218 25.5472 5.80078C25.4809 5.9781 25.3649 6.17614 25.1992 6.39489C25.0352 6.61198 24.8073 6.87713 24.5156 7.19034L23.3722 8.41335V8.45312H25.7386V9H22.527Z" fill="white"/>
</svg>
