<svg width="22" height="26" viewBox="0 0 22 26" fill="none" xmlns="http://www.w3.org/2000/svg">
<path d="M10.7917 11.3333C12.0113 11.3333 13.2036 11.001 14.2177 10.3783C15.2318 9.75567 16.0222 8.87066 16.4889 7.83521C16.9557 6.79976 17.0778 5.66038 16.8398 4.56116C16.6019 3.46193 16.0146 2.45223 15.1522 1.65973C14.2897 0.867231 13.1909 0.327536 11.9947 0.108886C10.7985 -0.109763 9.55859 0.00245389 8.43178 0.43135C7.30497 0.860247 6.34187 1.58656 5.66427 2.51844C4.98667 3.45032 4.625 4.54591 4.625 5.66667C4.625 7.16956 5.2747 8.6109 6.43117 9.67361C7.58765 10.7363 9.15616 11.3333 10.7917 11.3333Z" fill="#9E9898"/>
<path d="M20.0417 25.5C20.4505 25.5 20.8427 25.3507 21.1318 25.0851C21.4209 24.8194 21.5833 24.4591 21.5833 24.0833C21.5833 21.4533 20.4464 18.9309 18.4225 17.0712C16.3987 15.2115 13.6538 14.1667 10.7917 14.1667C7.92954 14.1667 5.18464 15.2115 3.16081 17.0712C1.13698 18.9309 4.2649e-08 21.4533 0 24.0833C0 24.4591 0.162425 24.8194 0.451543 25.0851C0.740662 25.3507 1.13279 25.5 1.54167 25.5H20.0417Z" fill="#9E9898"/>
</svg>
