<svg width="37" height="34" viewBox="0 0 37 34" fill="none" xmlns="http://www.w3.org/2000/svg">
<path d="M0 0H37V34H0V0Z" fill="#575353"/>
<path d="M18.5 15.5833C19.7197 15.5833 20.9119 15.251 21.926 14.6283C22.9401 14.0057 23.7305 13.1207 24.1973 12.0852C24.664 11.0498 24.7861 9.91038 24.5482 8.81116C24.3102 7.71193 23.7229 6.70223 22.8605 5.90973C21.9981 5.11723 20.8993 4.57754 19.7031 4.35889C18.5068 4.14024 17.2669 4.25245 16.1401 4.68135C15.0133 5.11025 14.0502 5.83656 13.3726 6.76844C12.695 7.70032 12.3333 8.79591 12.3333 9.91667C12.3333 11.4196 12.983 12.8609 14.1395 13.9236C15.296 14.9863 16.8645 15.5833 18.5 15.5833Z" fill="#9E9898"/>
<path d="M27.75 29.75C28.1589 29.75 28.551 29.6007 28.8401 29.3351C29.1292 29.0694 29.2917 28.7091 29.2917 28.3333C29.2917 25.7033 28.1547 23.1809 26.1309 21.3212C24.107 19.4615 21.3621 18.4167 18.5 18.4167C15.6379 18.4167 12.893 19.4615 10.8691 21.3212C8.84531 23.1809 7.70833 25.7033 7.70833 28.3333C7.70833 28.7091 7.87076 29.0694 8.15988 29.3351C8.44899 29.6007 8.84112 29.75 9.25 29.75H27.75Z" fill="#9E9898"/>
</svg>
