<svg width="27" height="28" viewBox="0 0 27 28" fill="none" xmlns="http://www.w3.org/2000/svg">
<path d="M26.6551 17.3645L24.2327 15.9758C24.4773 14.6661 24.4773 13.3226 24.2327 12.0129L26.6551 10.6242C26.9338 10.4661 27.0589 10.1387 26.9679 9.83389C26.3367 7.82422 25.262 6.00648 23.8575 4.49358C23.6414 4.26213 23.2888 4.20568 23.0159 4.36375L20.5935 5.75245C19.5756 4.8831 18.4042 4.21133 17.1362 3.77101V0.999243C17.1362 0.683115 16.9144 0.406503 16.6017 0.338761C14.5148 -0.12414 12.3767 -0.10156 10.3922 0.338761C10.0794 0.406503 9.85764 0.683115 9.85764 0.999243V3.77665C8.59527 4.22262 7.42388 4.89439 6.40034 5.7581L3.98364 4.36939C3.70501 4.21133 3.35814 4.26213 3.14206 4.49923C1.73753 6.00648 0.662808 7.82422 0.0316229 9.83953C-0.0650451 10.1444 0.065741 10.4718 0.344372 10.6299L2.76676 12.0186C2.52225 13.3282 2.52225 14.6718 2.76676 15.9814L0.344372 17.3701C0.065741 17.5282 -0.0593587 17.8556 0.0316229 18.1605C0.662808 20.1701 1.73753 21.9879 3.14206 23.5008C3.35814 23.7322 3.71069 23.7887 3.98364 23.6306L6.40603 22.2419C7.42388 23.1113 8.59527 23.783 9.86333 24.2234V27.0008C9.86333 27.3169 10.0851 27.5935 10.3978 27.6612C12.4847 28.1241 14.6228 28.1016 16.6073 27.6612C16.9201 27.5935 17.1419 27.3169 17.1419 27.0008V24.2234C18.4042 23.7774 19.5756 23.1056 20.5992 22.2419L23.0216 23.6306C23.3002 23.7887 23.6471 23.7379 23.8631 23.5008C25.2677 21.9935 26.3424 20.1758 26.9736 18.1605C27.0589 17.85 26.9338 17.5226 26.6551 17.3645ZM13.4969 18.5105C10.9892 18.5105 8.94783 16.4839 8.94783 13.9944C8.94783 11.5048 10.9892 9.47824 13.4969 9.47824C16.0046 9.47824 18.046 11.5048 18.046 13.9944C18.046 16.4839 16.0046 18.5105 13.4969 18.5105Z" fill="#292D32"/>
</svg>
