<svg width="22" height="21" viewBox="0 0 22 21" fill="none" xmlns="http://www.w3.org/2000/svg">
<path d="M18.0624 0.851316L2.66075 3.64329C2.05369 3.75449 1.49574 4.05023 1.06299 4.49021C0.630245 4.93018 0.343751 5.49298 0.242573 6.10185C0.141395 6.71073 0.230457 7.33606 0.497616 7.89259C0.764775 8.44911 1.19703 8.90975 1.73545 9.21169L6.87716 12.071C6.99861 12.1423 7.10467 12.237 7.18912 12.3497C7.27357 12.4624 7.33474 12.5908 7.36904 12.7274L8.66985 18.465C8.78114 18.9525 9.01246 19.4045 9.3428 19.7799C9.67315 20.1553 10.092 20.4423 10.5614 20.6146C11.0307 20.787 11.5357 20.8394 12.0304 20.7669C12.525 20.6945 12.9937 20.4996 13.3938 20.1999C13.7657 19.9154 14.0692 19.5513 14.2821 19.1342L21.2857 5.1358C21.5332 4.63804 21.6376 4.08125 21.5871 3.52755C21.5366 2.97384 21.3333 2.445 20.9998 2.00003C20.6664 1.55506 20.2159 1.21146 19.6986 1.00757C19.1814 0.803671 18.6177 0.747499 18.0704 0.84532L18.0624 0.851316ZM19.4918 4.24266L12.4882 18.2411C12.394 18.422 12.2468 18.5698 12.0663 18.6646C11.8857 18.7594 11.6805 18.7967 11.4781 18.7716C11.2757 18.7465 11.0858 18.66 10.9339 18.5239C10.7819 18.3878 10.6752 18.2085 10.6281 18.01L9.31928 12.2784C9.30102 12.2024 9.27833 12.1276 9.25132 12.0543L14.7646 7.92266C14.9768 7.76362 15.1172 7.52676 15.1547 7.26419C15.1923 7.00161 15.124 6.73484 14.965 6.52254C14.8059 6.31025 14.569 6.16982 14.3064 6.13216C14.0439 6.09451 13.7771 6.1627 13.5649 6.32174L8.0516 10.4534C7.98883 10.4069 7.92339 10.3641 7.85561 10.3252L2.7219 7.45995C2.54467 7.35897 2.40253 7.20622 2.31454 7.02219C2.22655 6.83816 2.19691 6.63164 2.2296 6.43032C2.26229 6.229 2.35575 6.04251 2.49744 5.89586C2.63913 5.7492 2.82228 5.64939 3.02234 5.60981L18.424 2.81784C18.6054 2.78679 18.7919 2.80641 18.9629 2.87455C19.1339 2.94268 19.2828 3.05669 19.3932 3.20401C19.5036 3.35134 19.5712 3.52626 19.5886 3.70952C19.606 3.89278 19.5725 4.07726 19.4918 4.24266Z" fill="black"/>
</svg>
