<svg width="25" height="25" viewBox="0 0 25 25" fill="none" xmlns="http://www.w3.org/2000/svg">
<path d="M25.6464 23.3432L20.5831 18.0861C20.3546 17.8488 20.0448 17.717 19.7198 17.717H18.892C20.2937 15.8557 21.1265 13.5145 21.1265 10.9677C21.1265 4.90909 16.3985 0 10.5633 0C4.72808 0 0 4.90909 0 10.9677C0 17.0263 4.72808 21.9354 10.5633 21.9354C13.0162 21.9354 15.271 21.0706 17.0637 19.6153V20.4748C17.0637 20.8122 17.1907 21.1339 17.4192 21.3712L22.4825 26.6283C22.9599 27.1239 23.7318 27.1239 24.2041 26.6283L25.6413 25.136C26.1187 24.6404 26.1187 23.8389 25.6464 23.3432ZM10.5633 17.717C6.97278 17.717 4.0628 14.7009 4.0628 10.9677C4.0628 7.23972 6.9677 4.21834 10.5633 4.21834C14.1538 4.21834 17.0637 7.23445 17.0637 10.9677C17.0637 14.6956 14.1588 17.717 10.5633 17.717Z" fill="#9E9898"/>
</svg>
