<svg width="22" height="21" viewBox="0 0 22 21" fill="none" xmlns="http://www.w3.org/2000/svg">
<path d="M18.1516 1.3433L18.2678 1.32224L18.2707 1.32007C18.6911 1.26449 19.1195 1.31672 19.5153 1.47273C19.9463 1.64266 20.3218 1.92902 20.5997 2.29988C20.8776 2.67074 21.0471 3.11149 21.0891 3.57294C21.1312 4.03409 21.0444 4.49778 20.8384 4.91235C20.8383 4.91262 20.8381 4.9129 20.838 4.91317L13.8368 18.9069C13.8365 18.9075 13.8362 18.9081 13.8358 18.9087C13.6573 19.2578 13.4032 19.5627 13.092 19.8013C12.759 20.0501 12.3693 20.212 11.9579 20.2722C11.5457 20.3326 11.1249 20.2889 10.7338 20.1453C10.3426 20.0016 9.99349 19.7625 9.71817 19.4496C9.44288 19.1368 9.2501 18.7601 9.15734 18.3539C9.15733 18.3538 9.15732 18.3538 9.15731 18.3538L7.85667 12.6168L7.8568 12.6168L7.85398 12.6056C7.8035 12.4046 7.7135 12.2157 7.58924 12.0499C7.46497 11.884 7.30893 11.7446 7.13021 11.6398L7.13027 11.6396L7.12016 11.634L1.98001 8.77559C1.97976 8.77544 1.9795 8.7753 1.97925 8.77516C1.53088 8.5235 1.1709 8.13977 0.948369 7.6762C0.725709 7.21237 0.651493 6.69122 0.73581 6.18382C0.820126 5.67641 1.05887 5.20744 1.41946 4.84082C1.77996 4.4743 2.24473 4.22789 2.75045 4.13518C2.75058 4.13515 2.75071 4.13513 2.75084 4.13511L18.1516 1.3433ZM19.9389 4.46638L19.939 4.46639L19.9411 4.46198C20.0622 4.21387 20.1125 3.93715 20.0864 3.66229C20.0603 3.38743 19.9589 3.1251 19.7933 2.90417C19.6278 2.68323 19.4045 2.51225 19.148 2.41006C18.8915 2.30787 18.6118 2.27843 18.3397 2.32501L18.3397 2.32498L18.3348 2.32586L2.93315 5.11783L2.93314 5.11777L2.92529 5.11932C2.62519 5.1787 2.35042 5.32843 2.13785 5.54844C1.92529 5.76845 1.7851 6.04821 1.73606 6.35018C1.68703 6.65214 1.73149 6.96188 1.86345 7.23787C1.99541 7.51386 2.20858 7.74294 2.47438 7.89438L2.47437 7.8944L2.47822 7.89655L7.60927 10.7604C7.65929 10.7892 7.70761 10.8208 7.75398 10.8552L8.05333 11.0769L8.35145 10.8535L13.8647 6.72185C13.9708 6.64237 14.1041 6.60827 14.2354 6.6271C14.3667 6.64593 14.4852 6.71616 14.5648 6.82239C14.6444 6.92861 14.6786 7.06206 14.6598 7.19337C14.641 7.32467 14.5708 7.44306 14.4648 7.52254L8.95148 11.6542L8.65336 11.8776L8.78215 12.2272C8.8021 12.2813 8.81892 12.3366 8.8325 12.3927L10.1406 18.1213L10.1406 18.1213L10.1416 18.1256C10.2124 18.4233 10.3724 18.6922 10.6002 18.8963C10.8281 19.1004 11.1129 19.2301 11.4165 19.2678C11.72 19.3055 12.0279 19.2495 12.2987 19.1072C12.5696 18.965 12.7904 18.7433 12.9317 18.4719L12.9317 18.472L12.9353 18.4648L19.9389 4.46638Z" fill="black" stroke="black"/>
</svg>
